# xmcd
#
# Track frame offsets: 
#        150
#        4477
#        6482
#        22761
#        40616
#        59248
#        71632
#        87643
#        101056
#        103081
#        122513
#        136223
#        154407
#        170736
#        238084
#        260236
#
# Disc length: 3796 seconds
#
# Revision: 0
# Processed by: cddbd v1.5.2PL0 Copyright (c) Steve Scherf et al.
# Submitted via: ExactAudioCopy v0.99pb5
#
DISCID=e90ed210
DTITLE=Awolnation - Megalithic Symphony
DYEAR=2011
DGENRE=Rock
TTITLE0=Megalithic Symphony
TTITLE1=Some Sort Of Creature
TTITLE2=Soul Wars
TTITLE3=People
TTITLE4=Jump On My Shoulders
TTITLE5=Burn It Down
TTITLE6=Guilty Filthy Soul
TTITLE7=Kill Your Heroes
TTITLE8=My Nightmare's Dream
TTITLE9=Sail
TTITLE10=Wake Up
TTITLE11=Not Your Fault
TTITLE12=All I Need
TTITLE13=Knights Of Shame
TTITLE14=Burn It Down (Innerpartysystem remix)
TTITLE15=Sail (Innerpartysystem remix)
EXTD=
EXTT0=
EXTT1=
EXTT2=
EXTT3=
EXTT4=
EXTT5=
EXTT6=
EXTT7=
EXTT8=
EXTT9=
EXTT10=
EXTT11=
EXTT12=
EXTT13=
EXTT14=
EXTT15=
PLAYORDER=
